<?xml version="1.0" encoding="UTF-8"?>
<svg id="Layer_2" data-name="Layer 2" xmlns="http://www.w3.org/2000/svg" viewBox="0 0 58.49 65.17">
  <defs>
    <style>
      .cls-1 {
        fill: #fc5b50;
      }

      .cls-2 {
        fill: #f8f5e8;
      }
    </style>
  </defs>
  <g id="Layer_1-2" data-name="Layer 1">
    <g>
      <g>
        <path class="cls-1" d="M49.25,63.93c.07-3.77.76-11.72-1.47-14.66-.93-1.22-2.32-1.88-3.83-2.05-3.69-.42-7.03,2.22-7.75,5.86-.69,3.47-.35,7.64-.33,10.86v.04s-9.2-.06-9.2-.06l.06-9.16c.02-2.73.35-5.46,1.11-8.09.24-.81.59-1.68,1.2-2.69,2.09-3.43,4.5-5.17,7.57-6.21,3.31-1.12,6.89-1.31,10.3-.53,12.46,2.85,11.73,14.78,11.51,26.73"/>
        <path class="cls-2" d="M24.42,40.23h0c-4.11,3.07-9.63,7.02-13.86,9.9-.17.12-.37.18-.58.17l-8.92-.06c-.57,0-1.02-.47-1.01-1.03.25-13.57,0-28.01,0-41.68,0-.56.45-1.01,1.01-1.02,2.74-.03,5.48-.05,8.21-.04.56,0,1.02.46,1.02,1.02v14.63c-.01,1.06,1.4,1.42,1.91.49l.02-.04c3.93-7.28,7.59-14.77,11.55-22.04.26-.48.84-.67,1.33-.44,2.29,1.08,4.99,2.55,7.28,3.76.49.26.68.86.43,1.36-3.43,6.8-7.18,13.55-10.62,20.36-.35.62-.68,1.24-1.01,1.86-.51.96.63,1.94,1.5,1.3.42-.31.76-.57.91-.72.06-.06.13-.11.21-.15,1.53-.85,6.88-4.87,8.32-5.87,6.57-4.61,13.03-9.46,19.66-14,.45-.31,1.05-.21,1.38.23,1.45,1.92,3.31,4.76,4.71,6.83.31.46.2,1.08-.25,1.4l-33.1,23.71s-.02.01-.03.02l-.09.06Z"/>
      </g>
      <path class="cls-2" d="M1.03,54.75h57.45v9.4c0,.57-.46,1.03-1.03,1.03H1.03c-.57,0-1.03-.46-1.03-1.03v-8.37c0-.57.46-1.03,1.03-1.03Z"/>
    </g>
  </g>
</svg>