<?xml version="1.0" encoding="UTF-8"?>
<svg id="Layer_2" data-name="Layer 2" xmlns="http://www.w3.org/2000/svg" viewBox="0 0 137.37 103.3">
  <defs>
    <style>
      .cls-1 {
        fill: #fc5b50;
      }

      .cls-2 {
        fill: #f8f5e8;
      }
    </style>
  </defs>
  <g id="Layer_1-2" data-name="Layer 1">
    <g>
      <g>
        <path class="cls-2" d="M91.2,87.25v15.44s-4.98-.05-4.98-.05c-.09-.8-.19-1.59-.29-2.39l-.05-1.98c-1.1,1.99-1.11,1.85-2.59,3.31-3.19,2.25-7.45,1.96-10.94.65-7.71-2.89-9.76-12.97-6.94-19.96,3.02-7.48,11.85-9.88,18.93-6.96,3.63,1.5,5.16,3.78,6.59,7.27-1.9.66-3.96,1.28-5.89,1.92-.99-2.83-2.84-4.59-5.91-4.89-5.37-.54-8.58,3.6-8.67,8.61-.04,2.56.37,5.19,2.13,7.18,3.44,3.88,11.36,3,12.28-2.72.04-.22-.02-.21-.17-.36-1.29-.17-5.01-.06-6.49-.05v-5.03c4.33-.03,8.65-.03,12.98,0Z"/>
        <path class="cls-2" d="M5.63,74.71c-1.84.03-3.77.02-5.61,0,.01,9.02.24,19.03-.02,27.96h6.21s-.01-9.21-.01-9.21l7.47-.05c1.6-.55,2.62-.32,4.32-1.35,3.03-1.85,3.83-4.13,4.35-7.48-.33-10.79-8.59-10-16.7-9.88ZM15.01,86.84c-2.14,1.61-6.09,1.18-8.84,1.18.03-2.64.04-5.28.03-7.91,2.23-.04,6.93-.45,8.67.87,1.74,1.32,1.52,4.22.15,5.87Z"/>
        <path class="cls-2" d="M62.29,90.59c-1.03-5.92-6.68-9.86-12.6-8.8-5.87,1.06-9.79,6.66-8.76,12.54,1.03,5.88,6.61,9.82,12.49,8.82,5.92-1.01,9.9-6.64,8.86-12.55ZM54.05,97.55c-.47.3-1.15.47-1.7.61-1.32.03-2.2.06-3.39-.74-2.68-1.78-2.76-6.64-1-9.07.81-1.12,1.8-1.55,3.14-1.76.82-.05,1.63.04,2.39.36,3.76,1.55,3.85,8.52.56,10.6Z"/>
        <path class="cls-2" d="M114.01,89.23c-1.56-5.81-5.97-7.9-11.59-7.34-6.57,1.17-9.71,6.82-8.45,13.18.49,2.6,2,4.9,4.2,6.38,2.58,1.71,5.89,2.07,8.87,1.47,3.85-.78,5.79-3.13,7.15-6.61l-1.53-.13c-1.46-.08-2.91-.21-4.36-.38-.76,1.15-1.56,1.93-2.97,2.25-1.26.28-2.58.03-3.64-.69-1.37-.92-1.7-1.9-2.1-3.37l14.77.02c.01-1.66.08-3.15-.35-4.77ZM104.55,90.17h-4.88c.97-2.29,1.73-3.21,4.25-3.56,2.62.03,3.61,1.36,4.56,3.55-1.29.03-2.63.01-3.93.01Z"/>
        <path class="cls-2" d="M137.31,94.32l-.02,8.34c-1.99-.02-3.98,0-5.96.02.07-2.33.04-4.64.04-7.04,0-3.44.8-9.42-4.54-8.78-1.42.17-2.42,1.18-3.11,2.36-.91,2.67-.57,10.15-.55,13.43-1.98-.03-4-.01-5.98-.01v-20.46c1.8,0,3.59,0,5.38,0l-.09,4.26c1.58-3.25,3.3-4.37,6.82-4.68,2.03-.22,4.28.35,5.75,1.82,2.81,2.81,2.28,7.09,2.26,10.74Z"/>
        <path class="cls-2" d="M39.78,87.99c-8.84.24-7.96,8.4-7.91,14.69-1.92-.06-4.01-.02-5.94-.02l.02-9.85.02-5.02-2.03-.06c.08-1.77.04-3.74.04-5.53,1.51.03,4.65-.17,5.92.03,2.91.45.25,6.6.86,7.68,1.41-.29,1.5-6.85,8.24-8.04.32-.02.25-.01.58.05.38.67.22,4.95.21,6.06Z"/>
      </g>
      <g>
        <g>
          <path class="cls-1" d="M85.2,60.09c.07-3.54.72-11.02-1.38-13.78-.87-1.15-2.18-1.76-3.6-1.93-3.47-.4-6.61,2.09-7.29,5.51s-.32,7.18-.31,10.21v.04s-8.65-.05-8.65-.05l.05-8.61c.02-2.57.33-5.13,1.04-7.6.22-.77.55-1.58,1.13-2.52,1.96-3.22,4.23-4.86,7.11-5.83,3.11-1.06,6.48-1.23,9.68-.5,11.71,2.68,11.03,13.89,10.82,25.12"/>
          <path class="cls-2" d="M61.87,37.82h0c-3.86,2.88-9.06,6.6-13.03,9.31-.16.11-.35.17-.54.16l-8.38-.06c-.53,0-.96-.44-.95-.97.23-12.76,0-26.33,0-39.18,0-.52.42-.95.95-.96,2.57-.03,5.15-.05,7.72-.04.53,0,.96.43.96.96v13.75c-.01,1,1.32,1.33,1.79.46l.02-.04c3.7-6.85,7.14-13.88,10.86-20.71.24-.45.79-.63,1.25-.41,2.15,1.01,4.69,2.4,6.84,3.53.46.24.64.81.41,1.28-3.23,6.4-6.75,12.74-9.98,19.13-.33.58-.64,1.16-.95,1.75-.48.9.59,1.83,1.41,1.23.4-.29.71-.53.86-.68.06-.06.12-.1.19-.14,1.44-.79,6.47-4.57,7.82-5.52,6.18-4.33,12.25-8.89,18.48-13.16.42-.29.99-.19,1.3.21,1.36,1.8,3.11,4.47,4.42,6.42.29.43.19,1.01-.24,1.32l-31.11,22.28s-.02.01-.03.02l-.08.06Z"/>
        </g>
        <path class="cls-2" d="M39.87,51.46h54v8.83c0,.53-.43.97-.97.97h-53.04c-.53,0-.97-.43-.97-.97v-7.87c0-.53.43-.97.97-.97Z"/>
      </g>
    </g>
  </g>
</svg>