<?xml version="1.0" encoding="UTF-8"?>
<svg id="Layer_2" data-name="Layer 2" xmlns="http://www.w3.org/2000/svg" viewBox="0 0 227.89 49.51">
  <defs>
    <style>
      .cls-1 {
        fill: #fc5b50;
      }

      .cls-2 {
        fill: #f8f5e8;
      }
    </style>
  </defs>
  <g id="Layer_1-2" data-name="Layer 1">
    <g>
      <g>
        <path class="cls-2" d="M172.09,23.88v18.67s-6.02-.06-6.02-.06c-.11-.96-.22-1.92-.35-2.88l-.06-2.39c-1.33,2.4-1.34,2.23-3.13,4-3.85,2.72-9,2.36-13.23.78-9.32-3.5-11.79-15.68-8.38-24.12,3.65-9.04,14.33-11.94,22.88-8.41,4.38,1.81,6.23,4.57,7.97,8.79-2.29.8-4.79,1.55-7.12,2.33-1.2-3.42-3.43-5.54-7.14-5.91-6.49-.65-10.37,4.35-10.47,10.4-.05,3.1.44,6.28,2.58,8.68,4.15,4.68,13.74,3.62,14.84-3.29.04-.27-.03-.25-.21-.44-1.56-.21-6.06-.07-7.84-.06v-6.08c5.23-.03,10.46-.03,15.69,0Z"/>
        <path class="cls-2" d="M68.67,8.72c-2.23.04-4.56.02-6.78,0,.02,10.9.29,23-.03,33.79h7.5s-.01-11.13-.01-11.13l9.02-.06c1.94-.67,3.17-.38,5.22-1.63,3.66-2.23,4.62-4.99,5.26-9.04-.4-13.04-10.38-12.09-20.18-11.94ZM80,23.39c-2.59,1.95-7.36,1.43-10.69,1.42.04-3.19.05-6.38.04-9.56,2.69-.05,8.38-.54,10.47,1.05,2.1,1.59,1.83,5.1.18,7.09Z"/>
        <path class="cls-2" d="M137.16,27.92c-1.25-7.15-8.08-11.92-15.23-10.64-7.1,1.28-11.83,8.05-10.59,15.15,1.24,7.1,7.99,11.87,15.1,10.66,7.16-1.22,11.96-8.02,10.71-15.17ZM127.2,36.33c-.57.36-1.39.57-2.06.74-1.6.03-2.66.07-4.1-.89-3.24-2.16-3.34-8.02-1.21-10.96.98-1.36,2.17-1.87,3.79-2.13,1-.06,1.97.05,2.89.44,4.54,1.88,4.66,10.3.68,12.81Z"/>
        <path class="cls-2" d="M199.66,26.27c-1.88-7.02-7.21-9.55-14.01-8.87-7.94,1.42-11.74,8.24-10.21,15.93.59,3.15,2.42,5.92,5.08,7.71,3.11,2.06,7.11,2.51,10.72,1.77,4.66-.95,6.99-3.78,8.64-8l-1.84-.15c-1.76-.1-3.51-.25-5.26-.45-.92,1.39-1.88,2.33-3.59,2.71-1.52.34-3.11.04-4.4-.84-1.65-1.12-2.06-2.29-2.54-4.07l17.85.03c.01-2.01.1-3.81-.42-5.77ZM188.23,27.41h-5.9c1.17-2.77,2.09-3.88,5.14-4.31,3.16.04,4.36,1.65,5.51,4.29-1.56.03-3.18.01-4.75.02Z"/>
        <path class="cls-2" d="M227.83,32.43l-.02,10.08c-2.4-.02-4.8,0-7.21.03.09-2.81.05-5.61.05-8.51,0-4.16.97-11.39-5.49-10.61-1.72.21-2.92,1.42-3.76,2.86-1.11,3.22-.69,12.27-.66,16.23-2.39-.04-4.83-.02-7.23-.02v-24.73c2.18-.01,4.34,0,6.51,0l-.11,5.14c1.91-3.92,3.99-5.28,8.25-5.66,2.45-.27,5.18.43,6.95,2.2,3.39,3.4,2.76,8.57,2.73,12.98Z"/>
        <path class="cls-2" d="M109.95,24.77c-10.69.28-9.63,10.15-9.57,17.76-2.32-.07-4.85-.03-7.18-.02l.02-11.9.03-6.07-2.45-.07c.09-2.14.05-4.53.05-6.69,1.83.03,5.62-.2,7.15.04,3.51.54.3,7.97,1.04,9.29,1.71-.35,1.81-8.28,9.96-9.71.39-.02.31-.01.7.06.46.81.26,5.99.25,7.32Z"/>
      </g>
      <g>
        <g>
          <path class="cls-1" d="M37.42,48.57c.06-2.86.58-8.91-1.12-11.14-.71-.93-1.76-1.42-2.91-1.56-2.8-.32-5.34,1.69-5.89,4.45-.52,2.63-.26,5.81-.25,8.25v.03s-6.99-.04-6.99-.04l.04-6.96c.01-2.08.26-4.15.84-6.14.18-.62.44-1.28.91-2.04,1.59-2.61,3.42-3.93,5.75-4.72,2.52-.85,5.24-1,7.83-.4,9.47,2.17,8.91,11.23,8.75,20.31"/>
          <path class="cls-2" d="M18.56,30.56h0c-3.12,2.33-7.32,5.34-10.53,7.52-.13.09-.28.13-.44.13l-6.77-.05c-.43,0-.78-.35-.77-.79.19-10.31,0-21.28,0-31.66,0-.42.34-.77.77-.77,2.08-.03,4.16-.04,6.24-.03.43,0,.78.35.78.78v11.11c-.01.81,1.07,1.08,1.45.37l.02-.03C12.28,11.62,15.06,5.93,18.07.41c.2-.36.64-.51,1.01-.33,1.74.82,3.79,1.94,5.53,2.86.37.2.52.66.33,1.03-2.61,5.17-5.45,10.29-8.07,15.47-.26.47-.52.94-.77,1.41-.39.73.48,1.48,1.14.99.32-.23.57-.43.69-.55.05-.05.1-.08.16-.11,1.16-.64,5.23-3.7,6.32-4.46,4.99-3.5,9.9-7.18,14.94-10.63.34-.23.8-.16,1.05.17,1.1,1.46,2.52,3.62,3.57,5.19.23.35.15.82-.19,1.06l-25.14,18.01s-.01.01-.02.02l-.06.05Z"/>
        </g>
        <path class="cls-2" d="M.78,41.6h43.65v7.14c0,.43-.35.78-.78.78H.78c-.43,0-.78-.35-.78-.78v-6.36c0-.43.35-.78.78-.78Z"/>
      </g>
    </g>
  </g>
</svg>