<?xml version="1.0" encoding="UTF-8"?>
<svg id="Layer_2" data-name="Layer 2" xmlns="http://www.w3.org/2000/svg" viewBox="0 0 229.04 61.48">
  <defs>
    <style>
      .cls-1 {
        fill: #fc5b50;
      }

      .cls-2 {
        fill: #f8f5e8;
      }
    </style>
  </defs>
  <g id="Layer_1-2" data-name="Layer 1">
    <g>
      <g>
        <path class="cls-1" d="M181.76,50.01h1.39v3.52c.53-.66,1.31-1.06,2.24-1.06,1.78,0,3.12,1.43,3.12,3.32s-1.34,3.32-3.12,3.32c-.93,0-1.7-.4-2.24-1.06v.91h-1.39v-8.95ZM187.07,55.8c0-1.12-.83-1.98-1.95-1.98s-1.97.86-1.97,1.98.85,1.98,1.97,1.98,1.95-.86,1.95-1.98Z"/>
        <path class="cls-1" d="M189.7,56.36v-3.73h1.39v3.32c0,.92.58,1.52,1.48,1.52.94,0,1.58-.61,1.58-1.54v-3.3h1.39v6.01c0,1.72-1.23,2.85-2.95,2.85-1.43,0-2.52-.81-2.85-2.11h1.43c.21.52.8.86,1.44.86.87,0,1.53-.61,1.53-1.53v-.82c-.48.61-1.18.93-2.03.93-1.45,0-2.43-.97-2.43-2.45Z"/>
        <path class="cls-1" d="M200.13,50.01h1.39v3.52c.53-.66,1.31-1.06,2.24-1.06,1.78,0,3.12,1.43,3.12,3.32s-1.34,3.32-3.12,3.32c-.93,0-1.7-.4-2.24-1.06v.91h-1.39v-8.95ZM205.44,55.8c0-1.12-.83-1.98-1.95-1.98s-1.97.86-1.97,1.98.85,1.98,1.97,1.98,1.95-.86,1.95-1.98Z"/>
        <path class="cls-1" d="M207.77,55.8c0-1.89,1.46-3.32,3.39-3.32,1.65,0,2.96,1.04,3.22,2.54h-1.48c-.22-.71-.91-1.19-1.74-1.19-1.12,0-1.96.86-1.96,1.98s.85,1.98,1.96,1.98c.83,0,1.52-.48,1.74-1.19h1.48c-.26,1.49-1.57,2.54-3.22,2.54-1.94,0-3.39-1.43-3.39-3.32Z"/>
        <path class="cls-1" d="M215.25,55.8c0-1.89,1.46-3.32,3.39-3.32s3.4,1.43,3.4,3.32-1.47,3.32-3.4,3.32-3.39-1.43-3.39-3.32ZM220.6,55.8c0-1.12-.83-1.98-1.95-1.98s-1.96.86-1.96,1.98.85,1.98,1.96,1.98,1.95-.86,1.95-1.98Z"/>
        <path class="cls-1" d="M223.88,58l-.42.97h-1.44l2.85-6.34h1.59c.39,1.67,2.59,1.68,2.59,3.93,0,1.53-.98,2.56-2.6,2.56-1.06,0-1.98-.44-2.56-1.12ZM225.63,54.04l-1.24,2.81c.36.55,1.04.92,1.79.92.85,0,1.43-.48,1.43-1.24,0-1.07-1.34-1.36-1.98-2.49Z"/>
      </g>
      <g>
        <g>
          <path class="cls-2" d="M171.75,23.83v18.63s-6.01-.06-6.01-.06c-.11-.96-.22-1.92-.35-2.88l-.06-2.38c-1.33,2.39-1.34,2.23-3.12,4-3.84,2.71-8.98,2.36-13.2.78-9.3-3.49-11.77-15.65-8.37-24.08,3.64-9.02,14.3-11.92,22.84-8.39,4.38,1.81,6.22,4.56,7.95,8.77-2.29.8-4.78,1.55-7.11,2.32-1.2-3.42-3.43-5.53-7.13-5.9-6.48-.65-10.35,4.34-10.45,10.38-.05,3.09.44,6.26,2.57,8.67,4.15,4.68,13.71,3.62,14.81-3.29.04-.27-.03-.25-.21-.44-1.55-.21-6.05-.07-7.82-.06v-6.07c5.22-.03,10.44-.03,15.66,0Z"/>
          <path class="cls-2" d="M68.54,8.7c-2.22.04-4.55.02-6.77,0,.02,10.88.29,22.95-.02,33.72h7.49s-.01-11.11-.01-11.11l9.01-.06c1.94-.66,3.16-.38,5.21-1.63,3.66-2.23,4.62-4.98,5.25-9.02-.4-13.02-10.36-12.07-20.14-11.91ZM79.85,23.34c-2.59,1.94-7.35,1.43-10.67,1.42.04-3.18.05-6.36.04-9.55,2.69-.05,8.36-.54,10.45,1.05,2.1,1.59,1.83,5.09.18,7.08Z"/>
          <path class="cls-2" d="M136.89,27.87c-1.25-7.14-8.06-11.9-15.2-10.62-7.08,1.27-11.8,8.03-10.56,15.12,1.24,7.09,7.97,11.84,15.07,10.64,7.14-1.21,11.94-8.01,10.69-15.14ZM126.95,36.26c-.57.36-1.39.57-2.05.74-1.59.03-2.65.07-4.09-.89-3.23-2.15-3.33-8.01-1.21-10.94.98-1.35,2.17-1.87,3.79-2.13,1-.06,1.97.05,2.89.43,4.53,1.87,4.65,10.28.68,12.78Z"/>
          <path class="cls-2" d="M199.27,26.22c-1.88-7-7.2-9.53-13.99-8.86-7.92,1.42-11.72,8.22-10.19,15.9.59,3.14,2.42,5.91,5.07,7.7,3.11,2.06,7.1,2.5,10.7,1.77,4.65-.95,6.98-3.78,8.63-7.98l-1.84-.15c-1.76-.1-3.51-.25-5.25-.45-.92,1.39-1.88,2.32-3.58,2.71-1.52.34-3.11.04-4.39-.84-1.65-1.12-2.06-2.29-2.53-4.06l17.81.03c.01-2.01.1-3.8-.42-5.76ZM187.87,27.36h-5.88c1.17-2.76,2.09-3.87,5.13-4.3,3.15.04,4.35,1.65,5.5,4.28-1.56.03-3.17.01-4.74.02Z"/>
          <path class="cls-2" d="M227.39,32.37l-.02,10.06c-2.4-.02-4.8,0-7.19.03.09-2.81.05-5.6.05-8.5,0-4.15.97-11.37-5.47-10.59-1.71.21-2.91,1.42-3.76,2.85-1.1,3.22-.68,12.25-.66,16.2-2.39-.04-4.83-.02-7.22-.02v-24.68c2.17-.01,4.33,0,6.49,0l-.11,5.13c1.9-3.92,3.99-5.27,8.23-5.65,2.44-.26,5.17.43,6.94,2.2,3.39,3.39,2.75,8.55,2.73,12.95Z"/>
          <path class="cls-2" d="M109.73,24.73c-10.66.28-9.61,10.13-9.55,17.72-2.32-.07-4.84-.02-7.17-.02l.02-11.88.03-6.06-2.45-.07c.09-2.14.05-4.52.05-6.68,1.82.03,5.61-.2,7.14.04,3.51.54.3,7.96,1.04,9.27,1.71-.35,1.81-8.26,9.94-9.69.39-.02.31-.01.7.06.46.81.26,5.98.25,7.31Z"/>
        </g>
        <g>
          <g>
            <path class="cls-1" d="M37.34,48.48c.06-2.86.58-8.89-1.11-11.12-.7-.93-1.76-1.42-2.91-1.55-2.8-.32-5.33,1.68-5.88,4.44-.52,2.63-.26,5.79-.25,8.23v.03s-6.98-.04-6.98-.04l.04-6.95c.01-2.07.26-4.14.84-6.13.18-.62.44-1.27.91-2.04,1.58-2.6,3.41-3.92,5.74-4.71,2.51-.85,5.23-.99,7.81-.4,9.45,2.16,8.9,11.2,8.73,20.27"/>
            <path class="cls-2" d="M18.52,30.51h0c-3.12,2.33-7.31,5.33-10.51,7.51-.13.09-.28.13-.44.13l-6.76-.05c-.43,0-.77-.35-.77-.78.19-10.29,0-21.24,0-31.6,0-.42.34-.77.76-.77,2.08-.03,4.15-.04,6.23-.03.43,0,.77.35.77.78v11.09c-.01.8,1.06,1.08,1.45.37l.02-.03C12.26,11.59,15.03,5.92,18.03.41c.2-.36.64-.51,1.01-.33,1.74.82,3.79,1.93,5.52,2.85.37.2.52.65.33,1.03-2.6,5.16-5.44,10.27-8.05,15.44-.26.47-.51.94-.77,1.41-.39.73.47,1.47,1.14.99.32-.23.57-.43.69-.55.05-.05.1-.08.16-.11,1.16-.64,5.22-3.69,6.31-4.45,4.98-3.49,9.88-7.17,14.91-10.61.34-.23.8-.16,1.05.17,1.1,1.45,2.51,3.61,3.57,5.18.23.35.15.82-.19,1.06l-25.09,17.98s-.01.01-.02.02l-.06.05Z"/>
          </g>
          <path class="cls-2" d="M.78,41.52h43.56v7.12c0,.43-.35.78-.78.78H.78c-.43,0-.78-.35-.78-.78v-6.35c0-.43.35-.78.78-.78Z"/>
        </g>
      </g>
    </g>
  </g>
</svg>