<?xml version="1.0" encoding="UTF-8"?>
<svg id="Layer_2" data-name="Layer 2" xmlns="http://www.w3.org/2000/svg" viewBox="0 0 171.05 45.91">
  <defs>
    <style>
      .cls-1 {
        fill: #fff;
      }
    </style>
  </defs>
  <g id="Layer_1-2" data-name="Layer 1">
    <g>
      <g>
        <path class="cls-1" d="M135.74,37.35h1.04v2.63c.4-.49.98-.79,1.67-.79,1.33,0,2.33,1.07,2.33,2.48s-1,2.48-2.33,2.48c-.7,0-1.27-.3-1.67-.79v.68h-1.04v-6.69ZM139.7,41.67c0-.84-.62-1.48-1.46-1.48s-1.47.64-1.47,1.48.63,1.48,1.47,1.48,1.46-.64,1.46-1.48Z"/>
        <path class="cls-1" d="M141.67,42.09v-2.79h1.04v2.48c0,.69.44,1.13,1.11,1.13.71,0,1.18-.45,1.18-1.15v-2.46h1.04v4.49c0,1.28-.92,2.13-2.2,2.13-1.07,0-1.89-.6-2.13-1.58h1.07c.16.39.59.64,1.08.64.65,0,1.14-.45,1.14-1.14v-.61c-.36.45-.88.7-1.51.7-1.09,0-1.81-.72-1.81-1.83Z"/>
        <path class="cls-1" d="M149.45,37.35h1.04v2.63c.4-.49.98-.79,1.67-.79,1.33,0,2.33,1.07,2.33,2.48s-1,2.48-2.33,2.48c-.7,0-1.27-.3-1.67-.79v.68h-1.04v-6.69ZM153.42,41.67c0-.84-.62-1.48-1.46-1.48s-1.47.64-1.47,1.48.63,1.48,1.47,1.48,1.46-.64,1.46-1.48Z"/>
        <path class="cls-1" d="M155.17,41.67c0-1.41,1.09-2.48,2.54-2.48,1.24,0,2.21.78,2.41,1.89h-1.11c-.17-.53-.68-.89-1.3-.89-.84,0-1.47.64-1.47,1.48s.63,1.48,1.47,1.48c.62,0,1.13-.36,1.3-.89h1.11c-.19,1.11-1.17,1.89-2.41,1.89-1.45,0-2.54-1.07-2.54-2.48Z"/>
        <path class="cls-1" d="M160.75,41.67c0-1.41,1.09-2.48,2.54-2.48s2.54,1.07,2.54,2.48-1.1,2.48-2.54,2.48-2.54-1.07-2.54-2.48ZM164.74,41.67c0-.84-.62-1.48-1.46-1.48s-1.47.64-1.47,1.48.63,1.48,1.47,1.48,1.46-.64,1.46-1.48Z"/>
        <path class="cls-1" d="M167.19,43.31l-.32.72h-1.08l2.13-4.74h1.19c.29,1.24,1.93,1.25,1.93,2.93,0,1.14-.73,1.91-1.94,1.91-.79,0-1.48-.33-1.91-.84ZM168.5,40.36l-.93,2.1c.27.41.78.69,1.34.69.63,0,1.07-.36,1.07-.93,0-.8-1-1.01-1.48-1.86Z"/>
      </g>
      <g>
        <g>
          <path class="cls-1" d="M128.27,17.8v13.91s-4.49-.05-4.49-.05c-.08-.72-.17-1.43-.26-2.15l-.05-1.78c-.99,1.79-1,1.66-2.33,2.98-2.87,2.02-6.71,1.76-9.86.58-6.95-2.61-8.79-11.69-6.25-17.98,2.72-6.74,10.68-8.9,17.05-6.27,3.27,1.35,4.65,3.41,5.94,6.55-1.71.6-3.57,1.15-5.31,1.73-.89-2.55-2.56-4.13-5.32-4.41-4.84-.48-7.73,3.24-7.81,7.75-.04,2.31.33,4.68,1.92,6.47,3.1,3.49,10.24,2.7,11.06-2.45.03-.2-.02-.19-.15-.32-1.16-.16-4.52-.05-5.84-.04v-4.53c3.9-.02,7.8-.02,11.7,0Z"/>
          <path class="cls-1" d="M51.19,6.5c-1.66.03-3.4.02-5.06,0,.01,8.12.21,17.14-.02,25.18h5.59s0-8.3,0-8.3l6.73-.04c1.45-.5,2.36-.28,3.89-1.22,2.73-1.67,3.45-3.72,3.92-6.74-.3-9.72-7.74-9.01-15.04-8.9ZM59.63,17.43c-1.93,1.45-5.49,1.07-7.97,1.06.03-2.38.04-4.75.03-7.13,2.01-.04,6.24-.41,7.81.78,1.56,1.19,1.37,3.8.13,5.29Z"/>
          <path class="cls-1" d="M102.23,20.81c-.93-5.33-6.02-8.89-11.35-7.93-5.29.95-8.82,6-7.89,11.29.93,5.29,5.96,8.85,11.25,7.94,5.34-.91,8.92-5.98,7.98-11.31ZM94.8,27.08c-.43.27-1.04.42-1.53.55-1.19.02-1.98.05-3.06-.66-2.41-1.61-2.49-5.98-.9-8.17.73-1.01,1.62-1.39,2.83-1.59.74-.04,1.47.04,2.16.32,3.39,1.4,3.47,7.68.51,9.54Z"/>
          <path class="cls-1" d="M148.82,19.58c-1.4-5.23-5.37-7.12-10.44-6.61-5.92,1.06-8.75,6.14-7.61,11.87.44,2.34,1.81,4.41,3.78,5.75,2.32,1.54,5.3,1.87,7.99,1.32,3.47-.71,5.21-2.82,6.44-5.96l-1.37-.11c-1.31-.08-2.62-.19-3.92-.34-.69,1.03-1.4,1.74-2.67,2.02-1.13.25-2.32.03-3.28-.63-1.23-.83-1.54-1.71-1.89-3.03l13.3.02c.01-1.5.08-2.84-.32-4.3ZM140.3,20.43h-4.39c.87-2.06,1.56-2.89,3.83-3.21,2.36.03,3.25,1.23,4.1,3.2-1.17.02-2.37.01-3.54.01Z"/>
          <path class="cls-1" d="M169.81,24.17l-.02,7.52c-1.79-.01-3.58,0-5.37.02.07-2.1.04-4.18.04-6.35,0-3.1.72-8.49-4.09-7.91-1.28.15-2.18,1.06-2.8,2.13-.82,2.4-.51,9.15-.49,12.1-1.78-.03-3.6-.01-5.39-.01V13.23c1.62,0,3.24,0,4.85,0l-.08,3.83c1.42-2.93,2.98-3.94,6.15-4.22,1.82-.2,3.86.32,5.18,1.64,2.53,2.53,2.06,6.38,2.04,9.67Z"/>
          <path class="cls-1" d="M81.95,18.47c-7.96.21-7.18,7.56-7.13,13.23-1.73-.05-3.61-.02-5.35-.02l.02-8.87.02-4.52-1.83-.05c.07-1.6.04-3.37.04-4.99,1.36.03,4.19-.15,5.33.03,2.62.4.22,5.94.78,6.92,1.27-.26,1.35-6.17,7.42-7.24.29-.02.23-.01.52.05.34.6.19,4.46.19,5.46Z"/>
        </g>
        <g>
          <g>
            <path class="cls-1" d="M27.89,36.2c.04-2.13.43-6.64-.83-8.3-.53-.69-1.32-1.06-2.17-1.16-2.09-.24-3.98,1.26-4.39,3.32s-.2,4.33-.19,6.15v.02s-5.21-.03-5.21-.03l.03-5.19c0-1.55.2-3.09.63-4.58.13-.46.33-.95.68-1.52,1.18-1.94,2.55-2.93,4.28-3.51,1.88-.64,3.9-.74,5.83-.3,7.06,1.62,6.64,8.37,6.52,15.14"/>
            <path class="cls-1" d="M13.83,22.78h0c-2.33,1.74-5.46,3.98-7.85,5.61-.1.07-.21.1-.33.1l-5.05-.03c-.32,0-.58-.26-.57-.59.14-7.69,0-15.86,0-23.6,0-.32.25-.57.57-.58,1.55-.02,3.1-.03,4.65-.02.32,0,.58.26.58.58v8.28c0,.6.79.8,1.08.28v-.02C9.15,8.66,11.23,4.42,13.46.3c.15-.27.48-.38.75-.25,1.3.61,2.83,1.44,4.12,2.13.28.15.39.49.25.77-1.94,3.85-4.06,7.67-6.01,11.53-.2.35-.38.7-.57,1.05-.29.54.35,1.1.85.74.24-.17.43-.32.52-.41.03-.03.07-.06.12-.08.87-.48,3.9-2.76,4.71-3.33,3.72-2.61,7.38-5.35,11.13-7.93.25-.17.6-.12.78.13.82,1.09,1.88,2.7,2.66,3.87.18.26.11.61-.14.79l-18.74,13.42s-.01,0-.02.01l-.05.03Z"/>
          </g>
          <path class="cls-1" d="M.58,31h32.53v5.32c0,.32-.26.58-.58.58H.58c-.32,0-.58-.26-.58-.58v-4.74c0-.32.26-.58.58-.58Z"/>
        </g>
      </g>
    </g>
  </g>
</svg>